<?xml version="1.0" encoding="UTF-8"?>
<!-- Generator: visioncortex VTracer 0.6.3 -->
<svg version="1.1" xmlns="http://www.w3.org/2000/svg" width="1280" height="1280">
<path d="M0 0 C4.62 0 9.24 0 14 0 C14 0.66 14 1.32 14 2 C16.64 2 19.28 2 22 2 C22 2.66 22 3.32 22 4 C23.65 4.33 25.3 4.66 27 5 C27 5.66 27 6.32 27 7 C28.65 7.33 30.3 7.66 32 8 C32 8.66 32 9.32 32 10 C32.99 10 33.98 10 35 10 C35 10.66 35 11.32 35 12 C35.66 12 36.32 12 37 12 C37 12.99 37 13.98 37 15 C37.99 15.33 38.98 15.66 40 16 C40 16.99 40 17.98 40 19 C40.66 19 41.32 19 42 19 C44.15 22.86 45.39 25.55 45 30 C45.66 30 46.32 30 47 30 C47 37.26 47 44.52 47 52 C46.34 52 45.68 52 45 52 C45 53.98 45 55.96 45 58 C44.34 58 43.68 58 43 58 C42.67 59.65 42.34 61.3 42 63 C41.34 63 40.68 63 40 63 C39.67 64.32 39.34 65.64 39 67 C38.34 67 37.68 67 37 67 C37 67.99 37 68.98 37 70 C32.78 73 32.78 73 30 73 C30 73.66 30 74.32 30 75 C29.01 75 28.02 75 27 75 C27.33 76.65 27.66 78.3 28 80 C28.66 80 29.32 80 30 80 C30 81.65 30 83.3 30 85 C30.66 85 31.32 85 32 85 C34.04 87.91 35 89.4 35 93 C35.66 93 36.32 93 37 93 C38.42 96.32 39.39 99.44 40 103 C40.66 103 41.32 103 42 103 C42 104.32 42 105.64 42 107 C42.99 107.33 43.98 107.66 45 108 C45 109.32 45 110.64 45 112 C45.66 112 46.32 112 47 112 C47 113.65 47 115.3 47 117 C47.99 117.33 48.98 117.66 50 118 C50 119.32 50 120.64 50 122 C50.66 122 51.32 122 52 122 C54.03 125.73 55 127.67 55 132 C55.66 132 56.32 132 57 132 C57 132.99 57 133.98 57 135 C57.66 135 58.32 135 59 135 C59.33 136.65 59.66 138.3 60 140 C60.66 140 61.32 140 62 140 C62 141.65 62 143.3 62 145 C62.66 145 63.32 145 64 145 C64.33 146.65 64.66 148.3 65 150 C65.66 150 66.32 150 67 150 C67 151.65 67 153.3 67 155 C67.99 155 68.98 155 70 155 C70 156.65 70 158.3 70 160 C70.66 160 71.32 160 72 160 C72 161.65 72 163.3 72 165 C72.99 165 73.98 165 75 165 C75 166.65 75 168.3 75 170 C75.66 170 76.32 170 77 170 C77.33 171.65 77.66 173.3 78 175 C78.66 175 79.32 175 80 175 C80 176.65 80 178.3 80 180 C80.66 180 81.32 180 82 180 C84.04 182.91 85 184.4 85 188 C85.66 188 86.32 188 87 188 C88.42 191.32 89.39 194.44 90 198 C90.66 198 91.32 198 92 198 C92 199.32 92 200.64 92 202 C92.99 202.33 93.98 202.66 95 203 C95 204.32 95 205.64 95 207 C95.66 207 96.32 207 97 207 C97 208.65 97 210.3 97 212 C97.99 212.33 98.98 212.66 100 213 C100 214.32 100 215.64 100 217 C100.66 217 101.32 217 102 217 C104.03 220.73 105 222.67 105 227 C105.66 227 106.32 227 107 227 C107 227.99 107 228.98 107 230 C107.66 230 108.32 230 109 230 C109.33 231.65 109.66 233.3 110 235 C110.66 235 111.32 235 112 235 C112 236.65 112 238.3 112 240 C112.66 240 113.32 240 114 240 C114.33 241.65 114.66 243.3 115 245 C115.66 245 116.32 245 117 245 C117 246.65 117 248.3 117 250 C117.66 250 118.32 250 119 250 C119.33 251.65 119.66 253.3 120 255 C120.66 255 121.32 255 122 255 C122 256.65 122 258.3 122 260 C122.99 260 123.98 260 125 260 C125 261.65 125 263.3 125 265 C125.66 265 126.32 265 127 265 C127.33 266.65 127.66 268.3 128 270 C128.66 270 129.32 270 130 270 C130 271.65 130 273.3 130 275 C130.66 275 131.32 275 132 275 C134.04 277.91 135 279.4 135 283 C135.66 283 136.32 283 137 283 C140 289.62 140 289.62 140 293 C140.66 293 141.32 293 142 293 C143.24 295.97 144.3 298.85 145 302 C145.66 302 146.32 302 147 302 C147 303.65 147 305.3 147 307 C147.99 307.33 148.98 307.66 150 308 C150 309.32 150 310.64 150 312 C150.66 312 151.32 312 152 312 C154.03 315.73 155 317.67 155 322 C155.66 322 156.32 322 157 322 C157 322.99 157 323.98 157 325 C157.66 325 158.32 325 159 325 C159.33 326.65 159.66 328.3 160 330 C160.66 330 161.32 330 162 330 C162 331.65 162 333.3 162 335 C162.66 335 163.32 335 164 335 C164.33 336.65 164.66 338.3 165 340 C165.66 340 166.32 340 167 340 C167 341.65 167 343.3 167 345 C167.66 345 168.32 345 169 345 C169.33 346.65 169.66 348.3 170 350 C170.66 350 171.32 350 172 350 C172 351.65 172 353.3 172 355 C172.99 355 173.98 355 175 355 C175 356.65 175 358.3 175 360 C175.66 360 176.32 360 177 360 C177.33 361.65 177.66 363.3 178 365 C178.66 365 179.32 365 180 365 C180 366.65 180 368.3 180 370 C180.66 370 181.32 370 182 370 C184.04 372.91 185 374.4 185 378 C185.66 378 186.32 378 187 378 C190 384.62 190 384.62 190 388 C190.66 388 191.32 388 192 388 C193.24 390.97 194.3 393.85 195 397 C195.66 397 196.32 397 197 397 C197 398.65 197 400.3 197 402 C197.99 402.33 198.98 402.66 200 403 C200 404.32 200 405.64 200 407 C200.66 407 201.32 407 202 407 C204.03 410.73 205 412.67 205 417 C205.66 417 206.32 417 207 417 C207 417.99 207 418.98 207 420 C207.66 420 208.32 420 209 420 C209.33 421.65 209.66 423.3 210 425 C210.66 425 211.32 425 212 425 C212 426.65 212 428.3 212 430 C212.66 430 213.32 430 214 430 C214.33 431.65 214.66 433.3 215 435 C215.66 435 216.32 435 217 435 C217 436.65 217 438.3 217 440 C217.66 440 218.32 440 219 440 C219.33 441.65 219.66 443.3 220 445 C220.66 445 221.32 445 222 445 C222 446.65 222 448.3 222 450 C222.99 450 223.98 450 225 450 C225 451.65 225 453.3 225 455 C225.66 455 226.32 455 227 455 C227.33 456.65 227.66 458.3 228 460 C228.66 460 229.32 460 230 460 C230 461.65 230 463.3 230 465 C230.66 465 231.32 465 232 465 C234.04 467.91 235 469.4 235 473 C235.66 473 236.32 473 237 473 C240 479.62 240 479.62 240 483 C240.66 483 241.32 483 242 483 C243.24 485.97 244.3 488.85 245 492 C245.66 492 246.32 492 247 492 C247 493.65 247 495.3 247 497 C247.99 497.33 248.98 497.66 250 498 C250 499.32 250 500.64 250 502 C250.66 502 251.32 502 252 502 C254.03 505.73 255 507.67 255 512 C255.66 512 256.32 512 257 512 C257 512.99 257 513.98 257 515 C257.66 515 258.32 515 259 515 C259.33 516.65 259.66 518.3 260 520 C260.66 520 261.32 520 262 520 C262 521.65 262 523.3 262 525 C262.66 525 263.32 525 264 525 C264 526.65 264 528.3 264 530 C263.34 530 262.68 530 262 530 C262 531.65 262 533.3 262 535 C261.34 535 260.68 535 260 535 C260.03 536.42 260.03 536.42 260.06 537.88 C260 541 260 541 259 543 C258.34 543 257.68 543 257 543 C257 545.31 257 547.62 257 550 C256.34 550 255.68 550 255 550 C255 551.65 255 553.3 255 555 C254.34 555 253.68 555 253 555 C252.67 557.64 252.34 560.28 252 563 C251.34 563 250.68 563 250 563 C249.67 565.31 249.34 567.62 249 570 C248.34 570 247.68 570 247 570 C247 572.31 247 574.62 247 577 C246.34 577 245.68 577 245 577 C245.06 578.14 245.06 578.14 245.12 579.31 C245 582 245 582 243 585 C242.62 586.66 242.27 588.32 242 590 C241.34 590 240.68 590 240 590 C240.06 591.64 240.06 591.64 240.12 593.31 C240 597 240 597 238 600 C237.62 601.66 237.27 603.32 237 605 C236.34 605 235.68 605 235 605 C235.03 606.42 235.03 606.42 235.06 607.88 C235 611 235 611 234 613 C233.34 613 232.68 613 232 613 C232 615.31 232 617.62 232 620 C231.34 620 230.68 620 230 620 C229.86 621.13 229.71 622.27 229.56 623.44 C229 627 229 627 228 628 C227.63 630.33 227.3 632.66 227 635 C226.34 635 225.68 635 225 635 C224.86 636.13 224.71 637.27 224.56 638.44 C224 642 224 642 223 643 C222.63 645.33 222.3 647.66 222 650 C221.34 650 220.68 650 220 650 C220.03 651.42 220.03 651.42 220.06 652.88 C220 656 220 656 219 658 C218.34 658 217.68 658 217 658 C217 660.31 217 662.62 217 665 C216.34 665 215.68 665 215 665 C215.06 666.64 215.06 666.64 215.12 668.31 C215 672 215 672 213 675 C212.45 676.99 211.95 678.99 211.5 681 C210.68 684.65 210.09 686.86 208 690 C207.61 692.32 207.27 694.66 207 697 C206.34 697 205.68 697 205 697 C205.06 698.36 205.06 698.36 205.12 699.75 C205 703.02 204.48 704.21 203 707 C202.62 708.99 202.27 710.99 202 713 C201.34 713 200.68 713 200 713 C200.06 714.64 200.06 714.64 200.12 716.31 C200 720 200 720 198 723 C197.61 725.32 197.27 727.66 197 730 C196.34 730 195.68 730 195 730 C195.03 731.92 195.03 731.92 195.06 733.88 C195.12 737.75 195.12 737.75 194 740 C193.34 740 192.68 740 192 740 C192 742.64 192 745.28 192 748 C191.34 748 190.68 748 190 748 C190.03 749.92 190.03 749.92 190.06 751.88 C190.12 755.75 190.12 755.75 189 758 C188.34 758 187.68 758 187 758 C187 760.97 187 763.94 187 767 C186.34 767 185.68 767 185 767 C185.06 768.89 185.06 768.89 185.12 770.81 C185.24 774.29 185.06 774.91 183 778 C182.55 780.28 182.55 780.28 182.38 782.69 C182.3 783.5 182.23 784.3 182.15 785.14 C182.1 785.75 182.05 786.37 182 787 C181.34 787 180.68 787 180 787 C180.06 788.89 180.06 788.89 180.12 790.81 C180.24 794.29 180.06 794.91 178 798 C177.55 800.28 177.55 800.28 177.38 802.69 C177.3 803.5 177.23 804.3 177.15 805.14 C177.1 805.75 177.05 806.37 177 807 C176.34 807 175.68 807 175 807 C175.02 807.6 175.05 808.21 175.07 808.83 C175.09 809.63 175.11 810.43 175.12 811.25 C175.15 812.04 175.17 812.83 175.2 813.64 C174.98 816.25 174.17 817.69 173 820 C172.55 822.59 172.55 822.59 172.38 825.25 C172.3 826.14 172.23 827.03 172.15 827.95 C172.1 828.63 172.05 829.3 172 830 C171.34 830 170.68 830 170 830 C170.03 831 170.03 831 170.07 832.01 C170.09 832.89 170.11 833.78 170.12 834.69 C170.15 835.56 170.17 836.43 170.2 837.32 C169.98 840.26 169.09 842.28 168 845 C167.72 847.1 167.51 849.2 167.38 851.31 C167.3 852.38 167.23 853.45 167.15 854.55 C167.1 855.36 167.05 856.17 167 857 C166.34 857 165.68 857 165 857 C165.03 858.32 165.03 858.32 165.07 859.67 C165.09 860.83 165.11 861.99 165.12 863.19 C165.15 864.34 165.17 865.48 165.2 866.67 C165 870 165 870 164.03 872.28 C162.42 876.52 162.53 880.82 162.38 885.31 C162.34 886.24 162.3 887.18 162.26 888.13 C162.16 890.42 162.08 892.71 162 895 C161.34 895 160.68 895 160 895 C160 910.84 160 926.68 160 943 C160.66 943 161.32 943 162 943 C162 946.96 162 950.92 162 955 C162.66 955 163.32 955 164 955 C164 956.65 164 958.3 164 960 C102.29 960 40.58 960 -23 960 C-23 960.66 -23 961.32 -23 962 C-27.95 962.02 -32.9 962.04 -37.84 962.05 C-39.53 962.06 -41.21 962.07 -42.9 962.08 C-45.31 962.09 -47.73 962.09 -50.15 962.1 C-50.9 962.1 -51.66 962.11 -52.44 962.11 C-57.77 962.11 -57.77 962.11 -60 961 C-62.62 960.88 -65.22 960.81 -67.85 960.79 C-69.06 960.78 -69.06 960.78 -70.3 960.76 C-72.98 960.73 -75.67 960.71 -78.35 960.68 C-80.21 960.66 -82.07 960.64 -83.93 960.62 C-88.82 960.57 -93.72 960.52 -98.61 960.47 C-103.61 960.42 -108.6 960.36 -113.59 960.31 C-123.4 960.2 -133.2 960.1 -143 960 C-143.03 958.35 -143.05 956.71 -143.06 955.06 C-143.07 954.15 -143.09 953.23 -143.1 952.29 C-143 950 -143 950 -142 949 C-141.88 947.37 -141.82 945.74 -141.79 944.11 C-141.77 943.07 -141.75 942.03 -141.73 940.96 C-141.72 939.83 -141.7 938.69 -141.68 937.53 C-141.66 936.37 -141.64 935.22 -141.62 934.03 C-141.56 930.34 -141.5 926.64 -141.44 922.94 C-141.39 920.44 -141.35 917.94 -141.31 915.44 C-141.2 909.29 -141.1 903.15 -141 897 C-141.66 897 -142.32 897 -143 897 C-143.03 896.13 -143.03 896.13 -143.06 895.24 C-143.16 892.6 -143.27 889.96 -143.38 887.31 C-143.41 886.4 -143.44 885.49 -143.47 884.55 C-143.67 879.87 -144.13 876.33 -146 872 C-146.2 868.89 -146.2 868.89 -146.12 865.69 C-146.11 864.62 -146.09 863.55 -146.07 862.45 C-146.05 861.64 -146.02 860.83 -146 860 C-146.66 860 -147.32 860 -148 860 C-148.07 858.68 -148.07 858.68 -148.15 857.33 C-148.22 856.17 -148.3 855.01 -148.38 853.81 C-148.44 852.66 -148.51 851.52 -148.59 850.33 C-148.98 847.17 -149.81 844.92 -151 842 C-151.2 839.54 -151.2 839.54 -151.12 837.19 C-151.11 836.4 -151.09 835.61 -151.07 834.79 C-151.05 834.2 -151.02 833.61 -151 833 C-151.66 833 -152.32 833 -153 833 C-153.05 832.25 -153.1 831.5 -153.15 830.73 C-153.26 829.26 -153.26 829.26 -153.38 827.75 C-153.44 826.78 -153.51 825.8 -153.59 824.8 C-153.99 822.06 -154.77 820.43 -156 818 C-156.25 815.3 -156.09 812.72 -156 810 C-156.66 810 -157.32 810 -158 810 C-158 806.7 -158 803.4 -158 800 C-158.66 800 -159.32 800 -160 800 C-161.61 796.79 -161.06 793.56 -161 790 C-161.66 790 -162.32 790 -163 790 C-163.18 789.07 -163.18 789.07 -163.37 788.13 C-164.24 783.73 -165.12 779.33 -166.06 774.94 C-166.22 774.2 -166.37 773.47 -166.54 772.71 C-166.85 770.98 -166.85 770.98 -168 770 C-168.22 768.33 -168.22 768.33 -168.44 766.62 C-168.75 762.91 -168.75 762.91 -171 760 C-171.08 757.67 -171.09 755.33 -171 753 C-171.66 753 -172.32 753 -173 753 C-173 750.36 -173 747.72 -173 745 C-173.66 745 -174.32 745 -175 745 C-176.48 742.04 -176.06 739.26 -176 736 C-176.66 736 -177.32 736 -178 736 C-178.13 735.43 -178.27 734.87 -178.4 734.29 C-178.58 733.55 -178.76 732.82 -178.94 732.06 C-179.11 731.33 -179.29 730.6 -179.46 729.85 C-179.84 728 -179.84 728 -181 727 C-181.04 724.67 -181.04 722.33 -181 720 C-181.66 720 -182.32 720 -183 720 C-183.12 718.91 -183.25 717.81 -183.38 716.69 C-183.75 712.93 -183.75 712.93 -186 710 C-186.12 707.31 -186.12 707.31 -186 705 C-186.66 705 -187.32 705 -188 705 C-188.2 702.98 -188.39 700.96 -188.59 698.95 C-188.86 696.77 -188.86 696.77 -191 695 C-191.12 691.38 -191.12 691.38 -191 688 C-191.66 688 -192.32 688 -193 688 C-193.31 686.87 -193.62 685.73 -193.94 684.56 C-194.63 681.21 -194.63 681.21 -196 680 C-196.04 678.33 -196.04 676.67 -196 675 C-196.66 675 -197.32 675 -198 675 C-198.12 673.91 -198.25 672.81 -198.38 671.69 C-198.75 667.93 -198.75 667.93 -201 665 C-201.12 662.31 -201.12 662.31 -201 660 C-201.66 660 -202.32 660 -203 660 C-203 657.69 -203 655.38 -203 653 C-203.66 653 -204.32 653 -205 653 C-206.35 650.29 -206.07 647.99 -206 645 C-206.66 645 -207.32 645 -208 645 C-208.31 643.87 -208.62 642.73 -208.94 641.56 C-209.63 638.21 -209.63 638.21 -211 637 C-211.04 635.33 -211.04 633.67 -211 632 C-211.66 632 -212.32 632 -213 632 C-213 629.69 -213 627.38 -213 625 C-213.66 625 -214.32 625 -215 625 C-215.33 622.69 -215.66 620.38 -216 618 C-216.66 618 -217.32 618 -218 618 C-218.31 616.87 -218.62 615.73 -218.94 614.56 C-219.63 611.21 -219.63 611.21 -221 610 C-221.04 608.33 -221.04 606.67 -221 605 C-221.66 605 -222.32 605 -223 605 C-223.31 603.87 -223.62 602.73 -223.94 601.56 C-224.63 598.21 -224.63 598.21 -226 597 C-226.04 595.33 -226.04 593.67 -226 592 C-226.66 592 -227.32 592 -228 592 C-228 589.69 -228 587.38 -228 585 C-228.66 585 -229.32 585 -230 585 C-230.33 582.69 -230.66 580.38 -231 578 C-231.66 578 -232.32 578 -233 578 C-233.46 576.55 -233.46 576.55 -233.94 575.06 C-234.7 572.16 -234.7 572.16 -236 571 C-236.04 569 -236.04 567 -236 565 C-236.66 565 -237.32 565 -238 565 C-238 563.35 -238 561.7 -238 560 C-238.66 560 -239.32 560 -240 560 C-240.33 557.69 -240.66 555.38 -241 553 C-241.66 553 -242.32 553 -243 553 C-243.46 551.55 -243.46 551.55 -243.94 550.06 C-244.7 547.16 -244.7 547.16 -246 546 C-246.04 544.33 -246.04 542.67 -246 541 C-246.66 541 -247.32 541 -248 541 C-248 539.02 -248 537.04 -248 535 C-248.99 535 -249.98 535 -251 535 C-250.69 534.24 -250.38 533.47 -250.06 532.69 C-249.32 530.81 -248.64 528.91 -248 527 C-247.34 527 -246.68 527 -246 527 C-245.5 524.53 -245.5 524.53 -245 522 C-244.34 522 -243.68 522 -243 522 C-243 520.35 -243 518.7 -243 517 C-242.34 517 -241.68 517 -241 517 C-240.5 514.53 -240.5 514.53 -240 512 C-239.34 512 -238.68 512 -238 512 C-238 510.68 -238 509.36 -238 508 C-237.34 508 -236.68 508 -236 508 C-235.88 507.28 -235.75 506.56 -235.62 505.81 C-235.01 503.04 -234.12 500.6 -233 498 C-232.34 498 -231.68 498 -231 498 C-230.81 496.92 -230.81 496.92 -230.62 495.81 C-230.01 493.04 -229.12 490.6 -228 488 C-227.34 488 -226.68 488 -226 488 C-225.88 487.42 -225.75 486.85 -225.62 486.25 C-224.99 483.98 -224.11 482.07 -223 480 C-222.34 480 -221.68 480 -221 480 C-221 478.35 -221 476.7 -221 475 C-220.34 475 -219.68 475 -219 475 C-218.67 473.35 -218.34 471.7 -218 470 C-217.34 470 -216.68 470 -216 470 C-216 468.35 -216 466.7 -216 465 C-215.01 465 -214.02 465 -213 465 C-213 463.35 -213 461.7 -213 460 C-212.34 460 -211.68 460 -211 460 C-211 458.35 -211 456.7 -211 455 C-210.01 455 -209.02 455 -208 455 C-208 453.35 -208 451.7 -208 450 C-207.34 450 -206.68 450 -206 450 C-205.67 448.35 -205.34 446.7 -205 445 C-204.34 445 -203.68 445 -203 445 C-203 443.35 -203 441.7 -203 440 C-202.34 440 -201.68 440 -201 440 C-200.67 438.35 -200.34 436.7 -200 435 C-199.34 435 -198.68 435 -198 435 C-198 433.35 -198 431.7 -198 430 C-197.34 430 -196.68 430 -196 430 C-196 429.01 -196 428.02 -196 427 C-195.34 427 -194.68 427 -194 427 C-193.67 425.35 -193.34 423.7 -193 422 C-192.34 422 -191.68 422 -191 422 C-190.88 421.28 -190.75 420.56 -190.62 419.81 C-190.01 417.04 -189.12 414.6 -188 412 C-187.34 412 -186.68 412 -186 412 C-185.67 410.35 -185.34 408.7 -185 407 C-184.34 407 -183.68 407 -183 407 C-183 405.35 -183 403.7 -183 402 C-182.34 402 -181.68 402 -181 402 C-180.67 400.35 -180.34 398.7 -180 397 C-179.34 397 -178.68 397 -178 397 C-178 395.68 -178 394.36 -178 393 C-177.34 393 -176.68 393 -176 393 C-175.88 392.28 -175.75 391.56 -175.62 390.81 C-175.01 388.04 -174.12 385.6 -173 383 C-172.34 383 -171.68 383 -171 383 C-170.88 382.28 -170.75 381.56 -170.62 380.81 C-170.01 378.04 -169.12 375.6 -168 373 C-167.34 373 -166.68 373 -166 373 C-166 372.01 -166 371.02 -166 370 C-165.34 370 -164.68 370 -164 370 C-163.67 368.35 -163.34 366.7 -163 365 C-162.34 365 -161.68 365 -161 365 C-161 363.35 -161 361.7 -161 360 C-160.34 360 -159.68 360 -159 360 C-158.67 358.35 -158.34 356.7 -158 355 C-157.34 355 -156.68 355 -156 355 C-156 353.35 -156 351.7 -156 350 C-155.01 350 -154.02 350 -153 350 C-153 348.35 -153 346.7 -153 345 C-152.34 345 -151.68 345 -151 345 C-150.67 343.35 -150.34 341.7 -150 340 C-149.34 340 -148.68 340 -148 340 C-148 338.35 -148 336.7 -148 335 C-147.34 335 -146.68 335 -146 335 C-145.67 333.35 -145.34 331.7 -145 330 C-144.34 330 -143.68 330 -143 330 C-143 328.35 -143 326.7 -143 325 C-142.34 325 -141.68 325 -141 325 C-140.67 323.35 -140.34 321.7 -140 320 C-139.34 320 -138.68 320 -138 320 C-138 318.35 -138 316.7 -138 315 C-137.34 315 -136.68 315 -136 315 C-136 314.01 -136 313.02 -136 312 C-135.34 312 -134.68 312 -134 312 C-133.67 310.35 -133.34 308.7 -133 307 C-132.34 307 -131.68 307 -131 307 C-130.88 306.28 -130.75 305.56 -130.62 304.81 C-130.01 302.04 -129.12 299.6 -128 297 C-127.34 297 -126.68 297 -126 297 C-125.67 295.35 -125.34 293.7 -125 292 C-124.34 292 -123.68 292 -123 292 C-123 290.35 -123 288.7 -123 287 C-122.34 287 -121.68 287 -121 287 C-120.81 286.16 -120.81 286.16 -120.62 285.31 C-119.94 282.78 -119.01 280.42 -118 278 C-117.34 278 -116.68 278 -116 278 C-115.88 277.28 -115.75 276.56 -115.62 275.81 C-115.01 273.04 -114.12 270.6 -113 268 C-112.34 268 -111.68 268 -111 268 C-110.88 267.28 -110.75 266.56 -110.62 265.81 C-110.01 263.04 -109.12 260.6 -108 258 C-107.34 258 -106.68 258 -106 258 C-106 257.01 -106 256.02 -106 255 C-105.34 255 -104.68 255 -104 255 C-103.67 253.35 -103.34 251.7 -103 250 C-102.34 250 -101.68 250 -101 250 C-101 248.35 -101 246.7 -101 245 C-100.34 245 -99.68 245 -99 245 C-98.67 243.35 -98.34 241.7 -98 240 C-97.34 240 -96.68 240 -96 240 C-96 238.35 -96 236.7 -96 235 C-95.01 235 -94.02 235 -93 235 C-93 233.35 -93 231.7 -93 230 C-92.34 230 -91.68 230 -91 230 C-90.67 228.35 -90.34 226.7 -90 225 C-89.34 225 -88.68 225 -88 225 C-88 223.35 -88 221.7 -88 220 C-87.34 220 -86.68 220 -86 220 C-85.67 218.35 -85.34 216.7 -85 215 C-84.34 215 -83.68 215 -83 215 C-83 213.35 -83 211.7 -83 210 C-82.34 210 -81.68 210 -81 210 C-80.67 208.35 -80.34 206.7 -80 205 C-79.34 205 -78.68 205 -78 205 C-78 203.35 -78 201.7 -78 200 C-77.34 200 -76.68 200 -76 200 C-74.92 197.35 -73.91 194.72 -73 192 C-72.34 192 -71.68 192 -71 192 C-70.88 191.28 -70.75 190.56 -70.62 189.81 C-70.01 187.04 -69.12 184.6 -68 182 C-67.34 182 -66.68 182 -66 182 C-65.67 180.35 -65.34 178.7 -65 177 C-64.34 177 -63.68 177 -63 177 C-63 175.35 -63 173.7 -63 172 C-62.34 172 -61.68 172 -61 172 C-60.88 171.44 -60.75 170.89 -60.62 170.31 C-59.94 167.78 -59.01 165.42 -58 163 C-57.34 163 -56.68 163 -56 163 C-55.88 162.28 -55.75 161.56 -55.62 160.81 C-55.01 158.04 -54.12 155.6 -53 153 C-52.34 153 -51.68 153 -51 153 C-50.88 152.26 -50.75 151.51 -50.62 150.75 C-50.05 148.2 -49.26 146.27 -48 144 C-47.34 144 -46.68 144 -46 144 C-46 142.68 -46 141.36 -46 140 C-45.34 140 -44.68 140 -44 140 C-43.67 138.35 -43.34 136.7 -43 135 C-42.34 135 -41.68 135 -41 135 C-41 133.35 -41 131.7 -41 130 C-40.34 129.67 -39.68 129.34 -39 129 C-38.35 126.98 -38.35 126.98 -38 125 C-37.34 125 -36.68 125 -36 125 C-36 123.35 -36 121.7 -36 120 C-35.01 120 -34.02 120 -33 120 C-33 118.35 -33 116.7 -33 115 C-32.34 115 -31.68 115 -31 115 C-30.67 113.35 -30.34 111.7 -30 110 C-29.34 110 -28.68 110 -28 110 C-28 108.35 -28 106.7 -28 105 C-27.34 105 -26.68 105 -26 105 C-25.67 103.35 -25.34 101.7 -25 100 C-24.34 100 -23.68 100 -23 100 C-23 98.35 -23 96.7 -23 95 C-22.34 95 -21.68 95 -21 95 C-20.67 93.35 -20.34 91.7 -20 90 C-19.34 90 -18.68 90 -18 90 C-18 89.01 -18 88.02 -18 87 C-17.34 87 -16.68 87 -16 87 C-15.88 86.32 -15.75 85.64 -15.62 84.94 C-14.91 81.57 -13.97 78.3 -13 75 C-13.99 75 -14.98 75 -16 75 C-16 74.34 -16 73.68 -16 73 C-17.18 72.54 -17.18 72.54 -18.38 72.06 C-21 71 -21 71 -23 70 C-23 69.01 -23 68.02 -23 67 C-23.66 67 -24.32 67 -25 67 C-25.33 65.68 -25.66 64.36 -26 63 C-26.66 63 -27.32 63 -28 63 C-28 62.01 -28 61.02 -28 60 C-28.66 60 -29.32 60 -30 60 C-31.35 57.29 -31.07 54.99 -31 52 C-31.66 52 -32.32 52 -33 52 C-33 44.74 -33 37.48 -33 30 C-32.34 30 -31.68 30 -31 30 C-30.94 29.01 -30.88 28.02 -30.81 27 C-30.17 22.39 -27.96 18.55 -25 15 C-24.34 15 -23.68 15 -23 15 C-23 14.01 -23 13.02 -23 12 C-22.34 12 -21.68 12 -21 12 C-21 11.34 -21 10.68 -21 10 C-20.01 10 -19.02 10 -18 10 C-18 9.34 -18 8.68 -18 8 C-16.35 7.67 -14.7 7.34 -13 7 C-13 6.34 -13 5.68 -13 5 C-11.35 4.67 -9.7 4.34 -8 4 C-8 3.34 -8 2.68 -8 2 C-5.36 2 -2.72 2 0 2 C0 1.34 0 0.68 0 0 Z M-6 80 C-6 80.69 -6 81.37 -6.01 82.08 C-6.11 122.74 -6.22 163.4 -6.33 204.06 C-6.34 208.93 -6.36 213.81 -6.37 218.69 C-6.38 219.66 -6.38 220.63 -6.38 221.63 C-6.42 237.37 -6.47 253.11 -6.5 268.86 C-6.55 285 -6.59 301.14 -6.64 317.28 C-6.67 327.25 -6.69 337.22 -6.72 347.18 C-6.73 354.01 -6.75 360.84 -6.77 367.66 C-6.79 371.61 -6.8 375.55 -6.8 379.5 C-6.81 383.1 -6.82 386.71 -6.84 390.32 C-6.84 392.25 -6.84 394.18 -6.84 396.11 C-6.85 397.24 -6.86 398.38 -6.86 399.56 C-6.86 400.54 -6.87 401.53 -6.87 402.54 C-7 405 -7 405 -8 408 C-10.64 408 -13.28 408 -16 408 C-16 408.66 -16 409.32 -16 410 C-17.09 409.96 -18.19 409.92 -19.31 409.88 C-23.09 409.68 -23.09 409.68 -26 412 C-27.99 412.39 -29.99 412.73 -32 413 C-32 413.66 -32 414.32 -32 415 C-33.98 415.33 -35.96 415.66 -38 416 C-38 416.66 -38 417.32 -38 418 C-39.65 418 -41.3 418 -43 418 C-43 418.66 -43 419.32 -43 420 C-44.18 420.46 -44.18 420.46 -45.38 420.94 C-47.92 421.93 -47.92 421.93 -50 423 C-50 423.66 -50 424.32 -50 425 C-50.99 425 -51.98 425 -53 425 C-53 425.66 -53 426.32 -53 427 C-54.32 427.33 -55.64 427.66 -57 428 C-57 428.66 -57 429.32 -57 430 C-57.99 430 -58.98 430 -60 430 C-60 430.99 -60 431.98 -60 433 C-60.99 433 -61.98 433 -63 433 C-63 433.66 -63 434.32 -63 435 C-63.66 435 -64.32 435 -65 435 C-65 435.99 -65 436.98 -65 438 C-65.99 438 -66.98 438 -68 438 C-68 438.66 -68 439.32 -68 440 C-68.66 440 -69.32 440 -70 440 C-70 440.99 -70 441.98 -70 443 C-70.66 443 -71.32 443 -72 443 C-72.33 444.32 -72.66 445.64 -73 447 C-73.66 447 -74.32 447 -75 447 C-75 447.99 -75 448.98 -75 450 C-75.99 450.33 -76.98 450.66 -78 451 C-78 452.32 -78 453.64 -78 455 C-78.66 455 -79.32 455 -80 455 C-80.33 456.65 -80.66 458.3 -81 460 C-81.66 460 -82.32 460 -83 460 C-83 460.99 -83 461.98 -83 463 C-83.66 463 -84.32 463 -85 463 C-85.33 465.31 -85.66 467.62 -86 470 C-86.66 470 -87.32 470 -88 470 C-88 472.31 -88 474.62 -88 477 C-88.66 477 -89.32 477 -90 477 C-90.13 477.71 -90.27 478.42 -90.4 479.15 C-90.58 480.07 -90.76 480.99 -90.94 481.94 C-91.11 482.85 -91.29 483.77 -91.46 484.71 C-92 487 -92 487 -93 488 C-93.09 490.74 -93.12 493.45 -93.1 496.19 C-93.1 497.01 -93.09 497.83 -93.09 498.68 C-93.09 501.3 -93.08 503.93 -93.06 506.56 C-93.06 508.34 -93.05 510.12 -93.05 511.9 C-93.04 516.26 -93.02 520.63 -93 525 C-92.34 525 -91.68 525 -91 525 C-90.67 528.96 -90.34 532.92 -90 537 C-89.34 537 -88.68 537 -88 537 C-88.04 537.76 -88.08 538.53 -88.12 539.31 C-88.22 542.23 -88.22 542.23 -86 545 C-85.62 546.66 -85.27 548.32 -85 550 C-84.34 550 -83.68 550 -83 550 C-82.67 551.65 -82.34 553.3 -82 555 C-81.34 555 -80.68 555 -80 555 C-80 555.99 -80 556.98 -80 558 C-79.34 558 -78.68 558 -78 558 C-78 559.32 -78 560.64 -78 562 C-76.71 563.79 -76.71 563.79 -75 565 C-74.34 565 -73.68 565 -73 565 C-72.67 566.65 -72.34 568.3 -72 570 C-71.34 570 -70.68 570 -70 570 C-70 570.66 -70 571.32 -70 572 C-69.34 572 -68.68 572 -68 572 C-68 572.99 -68 573.98 -68 575 C-67.01 575 -66.02 575 -65 575 C-65 575.66 -65 576.32 -65 577 C-64.34 577 -63.68 577 -63 577 C-63 577.99 -63 578.98 -63 580 C-62.01 580 -61.02 580 -60 580 C-60 580.66 -60 581.32 -60 582 C-59.34 582 -58.68 582 -58 582 C-57.5 583.49 -57.5 583.49 -57 585 C-56.34 585 -55.68 585 -55 585 C-55 585.66 -55 586.32 -55 587 C-51.78 589.32 -51.78 589.32 -48 590 C-48 590.66 -48 591.32 -48 592 C-46.35 592 -44.7 592 -43 592 C-43 592.99 -43 593.98 -43 595 C-41.35 595 -39.7 595 -38 595 C-38 595.66 -38 596.32 -38 597 C-36.35 597.33 -34.7 597.66 -33 598 C-33 598.66 -33 599.32 -33 600 C-31.02 600 -29.04 600 -27 600 C-27 600.66 -27 601.32 -27 602 C-24.03 602.33 -21.06 602.66 -18 603 C-18 603.66 -18 604.32 -18 605 C-14.04 605 -10.08 605 -6 605 C-6 605.66 -6 606.32 -6 607 C2.58 607 11.16 607 20 607 C20 606.34 20 605.68 20 605 C23.96 605 27.92 605 32 605 C32 604.34 32 603.68 32 603 C34.97 602.67 37.94 602.34 41 602 C41 601.34 41 600.68 41 600 C42.98 600 44.96 600 47 600 C47 599.34 47 598.68 47 598 C48.65 597.67 50.3 597.34 52 597 C52 596.34 52 595.68 52 595 C53.65 595 55.3 595 57 595 C57 594.01 57 593.02 57 592 C58.65 592 60.3 592 62 592 C62 591.34 62 590.68 62 590 C64.33 588.79 66.5 587.83 69 587 C69 586.34 69 585.68 69 585 C69.99 584.67 70.98 584.34 72 584 C72 583.34 72 582.68 72 582 C72.66 582 73.32 582 74 582 C74 581.34 74 580.68 74 580 C74.99 580 75.98 580 77 580 C77 579.01 77 578.02 77 577 C77.66 577 78.32 577 79 577 C79 576.34 79 575.68 79 575 C79.99 575 80.98 575 82 575 C82 574.01 82 573.02 82 572 C82.66 572 83.32 572 84 572 C84 571.34 84 570.68 84 570 C84.99 569.67 85.98 569.34 87 569 C87 567.68 87 566.36 87 565 C87.66 565 88.32 565 89 565 C90.71 563.79 90.71 563.79 92 562 C92 560.68 92 559.36 92 558 C92.66 558 93.32 558 94 558 C94 557.01 94 556.02 94 555 C94.66 555 95.32 555 96 555 C96.33 553.35 96.66 551.7 97 550 C97.66 550 98.32 550 99 550 C99.31 548.87 99.62 547.73 99.94 546.56 C101 543 101 543 102 542 C102.04 540.33 102.04 538.67 102 537 C102.66 537 103.32 537 104 537 C104.33 533.04 104.66 529.08 105 525 C105.66 525 106.32 525 107 525 C107.05 519.79 107.09 514.57 107.11 509.36 C107.12 507.58 107.13 505.81 107.15 504.03 C107.18 501.49 107.19 498.94 107.2 496.39 C107.21 495.59 107.22 494.8 107.23 493.98 C107.23 490.12 107.19 488.29 105 485 C104.46 482.34 104.27 479.71 104 477 C103.34 477 102.68 477 102 477 C102 474.69 102 472.38 102 470 C101.34 470 100.68 470 100 470 C99.67 467.69 99.34 465.38 99 463 C98.34 463 97.68 463 97 463 C97 462.01 97 461.02 97 460 C96.34 460 95.68 460 95 460 C94.67 458.35 94.34 456.7 94 455 C93.34 455 92.68 455 92 455 C91.67 453.35 91.34 451.7 91 450 C90.34 450 89.68 450 89 450 C89 449.01 89 448.02 89 447 C88.34 447 87.68 447 87 447 C86.67 445.68 86.34 444.36 86 443 C85.34 443 84.68 443 84 443 C84 442.01 84 441.02 84 440 C83.34 440 82.68 440 82 440 C82 439.34 82 438.68 82 438 C81.01 438 80.02 438 79 438 C79 437.01 79 436.02 79 435 C78.34 435 77.68 435 77 435 C77 434.34 77 433.68 77 433 C76.01 433 75.02 433 74 433 C74 432.01 74 431.02 74 430 C73.01 430 72.02 430 71 430 C71 429.34 71 428.68 71 428 C69.68 427.67 68.36 427.34 67 427 C67 426.34 67 425.68 67 425 C66.01 425 65.02 425 64 425 C64 424.34 64 423.68 64 423 C60.78 420.68 60.78 420.68 57 420 C57 419.34 57 418.68 57 418 C55.35 418 53.7 418 52 418 C52 417.34 52 416.68 52 416 C50.02 415.67 48.04 415.34 46 415 C46 414.34 46 413.68 46 413 C44.89 412.69 43.77 412.38 42.62 412.06 C39 411 39 411 37 410 C34.67 409.96 32.33 409.96 30 410 C30 409.34 30 408.68 30 408 C27.36 408 24.72 408 22 408 C20.97 404.91 20.87 402.79 20.86 399.56 C20.86 398.42 20.85 397.28 20.84 396.11 C20.84 394.85 20.84 393.59 20.84 392.3 C20.84 390.96 20.83 389.61 20.83 388.27 C20.81 384.57 20.81 380.87 20.8 377.18 C20.79 373.19 20.78 369.2 20.76 365.22 C20.74 358.31 20.72 351.4 20.71 344.49 C20.69 334.51 20.66 324.52 20.63 314.53 C20.58 298.33 20.54 282.12 20.5 265.92 C20.46 250.18 20.42 234.43 20.37 218.69 C20.37 217.72 20.37 216.75 20.36 215.75 C20.35 210.88 20.34 206.02 20.32 201.15 C20.21 160.77 20.1 120.38 20 80 C18.14 79.98 18.14 79.98 16.24 79.96 C15.54 79.96 14.84 79.95 14.12 79.95 C11.71 79.96 11.71 79.96 8.19 80.56 C5 81 5 81 2 80 C0.61 79.93 -0.79 79.91 -2.19 79.94 C-3.45 79.96 -4.7 79.98 -6 80 Z " fill="#000000" transform="translate(633,30)"/>
<path d="M0 0 C105.6 0 211.2 0 320 0 C320 37.95 320 75.9 320 115 C214.4 115 108.8 115 0 115 C0 77.05 0 39.1 0 0 Z " fill="#000000" transform="translate(480,1135)"/>
<path d="M0 0 C124.08 0 248.16 0 376 0 C376 29.04 376 58.08 376 88 C251.92 88 127.84 88 0 88 C0 58.96 0 29.92 0 0 Z " fill="#000000" transform="translate(452,1020)"/>
</svg>
